<svg xmlns="http://www.w3.org/2000/svg" xmlns:xlink="http://www.w3.org/1999/xlink" width="600" zoomAndPan="magnify" viewBox="0 0 450 149.999998" height="200" preserveAspectRatio="xMidYMid meet" version="1.0"><defs><g/></defs><g fill="#1e1d1d" fill-opacity="1"><g transform="translate(-5.999996, 106.884174)"><g><path d="M 48.3125 1.734375 L 59.78125 1.734375 L 91.5625 -71.453125 L 91.5625 -77.5 L 16.328125 -77.5 L 16.328125 -71.453125 Z M 64.421875 -32.640625 L 54.15625 -7.140625 L 53.609375 -7.140625 L 43.234375 -32.640625 L 27.78125 -68.96875 L 79.984375 -68.96875 Z M 64.421875 -32.640625 "/></g></g></g><g fill="#1e1d1d" fill-opacity="1"><g transform="translate(94.483241, 106.726581)"><g><path d="M 28.625 0 L 3.546875 -75.890625 L 12.375 -75.890625 L 35.84375 -4.3125 L 38.3125 -4.3125 L 61.890625 -75.890625 L 70.609375 -75.890625 L 45.53125 0 Z M 28.625 0 "/></g></g></g><g fill="#1e1d1d" fill-opacity="1"><g transform="translate(168.756412, 106.726581)"><g><path d="M 70.609375 0 L 61.890625 0 L 52.421875 -28.84375 L 21.84375 -28.84375 L 12.375 0 L 3.546875 0 L 28.625 -75.890625 L 45.53125 -75.890625 Z M 35.84375 -71.578125 L 24.328125 -36.375 L 49.9375 -36.375 L 38.3125 -71.578125 Z M 35.84375 -71.578125 "/></g></g></g><g fill="#1e1d1d" fill-opacity="1"><g transform="translate(243.029582, 106.726581)"><g><path d="M 54.890625 0 L 14.421875 1.078125 C 12.335938 1.148438 10.722656 0.59375 9.578125 -0.59375 C 8.429688 -1.78125 7.859375 -3.375 7.859375 -5.375 L 7.859375 -75.890625 L 16.6875 -75.890625 L 16.6875 -6.453125 L 54.890625 -7.53125 Z M 54.890625 0 "/></g></g></g><g fill="#1e1d1d" fill-opacity="1"><g transform="translate(301.479327, 106.726581)"><g><path d="M 36.703125 -38.859375 L 57.90625 -75.890625 L 67.390625 -75.890625 L 39.828125 -28.3125 L 39.828125 0 L 31.109375 0 L 31.109375 -28.3125 L 3.546875 -75.890625 L 13.03125 -75.890625 L 34.234375 -38.859375 L 34.234375 -32.71875 L 36.703125 -32.71875 Z M 36.703125 -38.859375 "/></g></g></g><g fill="#1e1d1d" fill-opacity="1"><g transform="translate(372.415581, 106.726581)"><g><path d="M 5.703125 -28.203125 L 5.703125 -75.890625 L 14.53125 -75.890625 L 14.53125 -29.59375 C 14.53125 -21.914062 16.085938 -16.140625 19.203125 -12.265625 C 22.328125 -8.390625 27.835938 -6.453125 35.734375 -6.453125 C 43.628906 -6.453125 49.15625 -8.390625 52.3125 -12.265625 C 55.46875 -16.140625 57.046875 -21.914062 57.046875 -29.59375 L 57.046875 -75.890625 L 65.875 -75.890625 L 65.875 -28.203125 C 65.875 -18.734375 63.453125 -11.484375 58.609375 -6.453125 C 53.765625 -1.429988 46.140625 1.078125 35.734375 1.078125 C 25.398438 1.078125 17.8125 -1.429988 12.96875 -6.453125 C 8.125 -11.484375 5.703125 -18.734375 5.703125 -28.203125 Z M 5.703125 -28.203125 "/></g></g></g></svg>